<svg version="1.0" xmlns="http://www.w3.org/2000/svg" viewBox="0 0 512 512"><g stroke-width="0"><path d="M165.1 65.1c-6.2 1.2-15.9 6-20.8 10.3C138.2 80.7 2.1 247.3.8 251c-1.5 4.5-.4 10.5 2.8 14.8 10.5 13.8 137.3 167.8 140.7 170.8 5.3 4.6 14.5 9 21.6 10.4 3.5.6 57.3 1 154.5 1 130.7 0 149.9-.2 155.1-1.5 17.2-4.5 30.5-17.9 35-35.2 2.3-8.6 2.3-302 0-310.6-4.5-17.3-17.8-30.7-35-35.2-5.2-1.3-24.2-1.5-156-1.4-82.5.1-152 .5-154.4 1zm307.5 33.5c1.5 1.1 3.7 3.3 4.8 4.8 2.1 2.7 2.1 2.8 2.1 152.6 0 149.8 0 149.9-2.1 152.6-1.1 1.5-3.3 3.7-4.8 4.8-2.7 2.1-3 2.1-151.8 2.4-136.5.2-149.2.1-152.4-1.4-2.6-1.2-20-21.8-67.2-79.5-35-42.9-63.7-78.4-63.7-78.9s28.7-36 63.7-78.8c44.4-54.3 64.7-78.4 67-79.5 3-1.5 16-1.6 152.5-1.4 148.9.2 149.2.2 151.9 2.3z"/><path d="m207.5 176-11 11 34.5 34.5 34.5 34.5-34.3 34.3-34.2 34.2 11.2 11.3 11.3 11.2 34.2-34.2 34.3-34.3 34.3 34.3 34.2 34.2 11.3-11.2 11.2-11.3-34.2-34.2-34.3-34.3 34.5-34.5 34.5-34.5-11.3-11.2-11.2-11.3-34.5 34.5-34.5 34.5-34.3-34.3C234.9 180.4 219.3 165 219 165c-.3 0-5.5 5-11.5 11z"/></g><path d="m344.5 176.2-11 11.3 11.3-11c10.4-10.2 11.7-11.5 10.9-11.5-.1 0-5.2 5.1-11.2 11.2zM219 210.5c12.4 12.4 22.7 22.5 23 22.5.3 0-9.6-10.1-22-22.5S197.3 188 197 188c-.3 0 9.6 10.1 22 22.5zm91 .2-22.5 22.8 22.8-22.5c21.1-20.9 23.2-23 22.4-23-.1 0-10.3 10.2-22.7 22.7zm-56.5 34 11 11.3-11 11.2-11 11.3 11.5-11.3 11.5-11.2-11.5-11.3-11.5-11.2 11 11.2zm-34.5 57-22.5 22.8 22.8-22.5c21.1-20.9 23.2-23 22.4-23-.1 0-10.3 10.2-22.7 22.7zm91-.2c12.4 12.4 22.7 22.5 23 22.5.3 0-9.6-10.1-22-22.5S288.3 279 288 279c-.3 0 9.6 10.1 22 22.5zm34.5 34.5c6 6 11.2 11 11.5 11 .2 0-4.5-5-10.5-11-6-6.1-11.2-11-11.5-11-.2 0 4.5 4.9 10.5 11z" fill-opacity=".19"/><path d="M230.5 176c6 6 11.2 11 11.5 11 .2 0-4.5-5-10.5-11-6-6.1-11.2-11-11.5-11-.2 0 4.5 4.9 10.5 11zm34.5 34.5c12.4 12.4 22.7 22.5 23 22.5.3 0-9.6-10.1-22-22.5S243.3 188 243 188c-.3 0 9.6 10.1 22 22.5zm91 .2-22.5 22.8 22.8-22.5c21.1-20.9 23.2-23 22.4-23-.1 0-10.3 10.2-22.7 22.7zM321.5 245l-11 11 11.5 11.3 11.5 11.2-11-11.3-11-11.2 11-11c6-6.1 10.7-11 10.5-11-.3 0-5.5 5-11.5 11zM265 301.7l-22.5 22.8 22.8-22.5c21.1-20.9 23.2-23 22.4-23-.1 0-10.3 10.2-22.7 22.7zm91-.2c12.4 12.4 22.7 22.5 23 22.5.3 0-9.6-10.1-22-22.5S334.3 279 334 279c-.3 0 9.6 10.1 22 22.5zm-125.5 34.7-11 11.3 11.3-11c10.4-10.2 11.7-11.5 10.9-11.5-.1 0-5.2 5.1-11.2 11.2z" fill-opacity=".21"/><path d="M207.5 336c6 6 11.2 11 11.5 11 .2 0-4.5-5-10.5-11-6-6.1-11.2-11-11.5-11-.2 0 4.5 4.9 10.5 11z" fill-opacity=".47"/><path d="m367.5 336.2-11 11.3 11.3-11c10.4-10.2 11.7-11.5 10.9-11.5-.1 0-5.2 5.1-11.2 11.2z" fill-opacity=".5"/></svg>